<?xml version="1.0" standalone="no"?>
<!DOCTYPE svg PUBLIC "-//W3C//DTD SVG 20010904//EN"
 "http://www.w3.org/TR/2001/REC-SVG-20010904/DTD/svg10.dtd">
<svg version="1.0" xmlns="http://www.w3.org/2000/svg"
 width="256.000000pt" height="256.000000pt" viewBox="0 0 256.000000 256.000000"
 preserveAspectRatio="xMidYMid meet">
<metadata>
Created by potrace 1.11, written by Peter Selinger 2001-2013
</metadata>
<g transform="translate(0.000000,256.000000) scale(0.100000,-0.100000)"
fill="#000000" stroke="none">
<path d="M1078 2149 c-268 -54 -488 -214 -617 -450 -32 -60 -78 -182 -86 -232
-3 -18 -8 -45 -12 -62 -11 -59 -9 -199 4 -274 17 -101 39 -167 82 -254 l36
-72 93 0 c50 -1 92 0 92 2 0 1 -16 28 -36 60 -51 79 -89 166 -108 248 -22 100
-16 277 14 370 77 243 248 414 495 496 70 23 73 23 674 27 l604 3 80 62 c103
80 107 83 107 88 0 3 -301 5 -669 5 -583 -1 -681 -3 -753 -17z"/>
<path d="M1227 1964 c-1 -1 -32 -4 -69 -8 -229 -21 -459 -195 -550 -418 -77
-189 -65 -415 30 -588 35 -64 92 -140 105 -141 38 -4 237 -3 237 1 0 3 -19 16
-41 30 -49 30 -120 106 -156 168 -70 119 -89 285 -48 416 60 192 196 322 392
373 15 4 230 8 477 10 l448 4 94 72 c51 39 91 73 88 76 -3 4 -1003 8 -1007 5z"/>
<path d="M1163 1744 c-228 -47 -387 -252 -378 -487 12 -287 286 -500 568 -441
91 19 180 69 245 139 92 99 128 185 131 316 2 92 -19 178 -62 250 -102 170
-311 262 -504 223z"/>
<path d="M1533 1754 c108 -85 139 -116 179 -175 197 -291 64 -679 -273 -801
-63 -23 -73 -23 -519 -26 l-455 -3 -93 -71 c-51 -39 -95 -74 -96 -77 -5 -8
1047 -5 1098 3 283 42 518 267 574 551 8 40 8 222 -1 260 -4 17 -9 43 -13 60
-11 48 -71 166 -115 225 l-41 55 -123 0 c-68 0 -123 -1 -122 -1z"/>
<path d="M1848 1745 c3 -5 18 -29 34 -53 48 -70 87 -163 106 -252 86 -392
-164 -782 -563 -877 -16 -4 -297 -9 -624 -10 l-594 -4 -51 -37 c-60 -44 -79
-58 -119 -93 l-30 -25 679 1 c373 1 701 5 727 9 74 11 174 44 257 86 246 124
417 349 475 625 21 100 14 306 -15 404 -25 87 -82 215 -101 226 -20 13 -188
12 -181 0z"/>
</g>
</svg>
